<svg id="Layer_1" data-name="Layer 1" xmlns="http://www.w3.org/2000/svg" viewBox="0 0 128 128"><title>langvik_web_ikonit_vektori</title><path d="M-.28,33.86V51.34h18A13.48,13.48,0,0,1,36.58,32.49V20h-23A13.87,13.87,0,0,0-.28,33.86Z"/><path d="M35.28,50c-1.19-4.88-2.6-8.95-3.54-9.95a4.53,4.53,0,0,0-6.4,6.4C26.33,47.45,30.41,48.86,35.28,50Z"/><path d="M19,77.86a13.48,13.48,0,0,1-1.29-17.57h-18V94.14A13.87,13.87,0,0,0,13.59,108h23V79.15A13.49,13.49,0,0,1,19,77.86Z"/><path d="M114.13,20H45.53v12.5A13.48,13.48,0,0,1,64.38,51.34H128V33.86A13.87,13.87,0,0,0,114.13,20Z"/><path d="M53.57,38.78a4.5,4.5,0,0,0-3.2,1.33c-.95,1-2.35,5.07-3.54,9.94,4.88-1.19,8.95-2.6,9.95-3.54a4.53,4.53,0,0,0-3.2-7.72Z"/><path d="M25.34,71.53a4.53,4.53,0,0,0,6.4,0c.94-1,2.35-5.06,3.54-9.94-4.88,1.19-8.95,2.6-9.94,3.54a4.53,4.53,0,0,0,0,6.4Z"/><path d="M46.82,61.59c1.19,4.88,2.6,8.95,3.54,9.95a4.53,4.53,0,0,0,6.4-6.4C55.77,64.19,51.7,62.78,46.82,61.59Z"/><path d="M63.09,77.86a13.49,13.49,0,0,1-17.57,1.29V108h68.6A13.87,13.87,0,0,0,128,94.14V60.29H64.38A13.5,13.5,0,0,1,63.09,77.86Zm31.3,5.49h-2l1.18-3h1.18a10,10,0,0,1,9.8-7.7,8.61,8.61,0,0,1,8,4.59l-4.41,3.14a3.75,3.75,0,0,0-3.73-2.61,3.89,3.89,0,0,0-3.61,2.58h5.57l-1.18,3h-4.95a8.86,8.86,0,0,0,.09,1.27h5.21l-1.18,3h-2.7a3.68,3.68,0,0,0,2.81,1.3,3.65,3.65,0,0,0,3.58-2.58l4.71,2.81c-1.18,3.11-5.07,4.89-8.41,4.89a10,10,0,0,1-9.06-6.43H92.38l1.18-3h.92C94.42,84.21,94.42,83.79,94.39,83.35Z"/></svg>