<svg id="Layer_1" data-name="Layer 1" xmlns="http://www.w3.org/2000/svg" viewBox="0 0 128 128"><title>langvik_web_ikonit_vektori</title><path d="M114,48.26V33c0-11.3-22.24-20.47-49.68-20.47S14.6,21.68,14.6,33V48.26c13-6.51,31.39-9.87,49.68-9.87S100.94,41.75,114,48.26Z"/><path d="M64.28,47C31.54,47,5,58,5,71.44v33.2a4.46,4.46,0,0,0,4.46,4.46h5.24v6a6.47,6.47,0,1,0,12.94,0v-6h73.31v6a6.47,6.47,0,1,0,12.94,0v-6h5.24a4.46,4.46,0,0,0,4.46-4.46V71.44C123.58,58,97,47,64.28,47Zm45.28,41.24H19a4.31,4.31,0,0,1,0-8.63h90.56a4.31,4.31,0,1,1,0,8.63Z"/></svg>