<svg id="Layer_1" data-name="Layer 1" xmlns="http://www.w3.org/2000/svg" viewBox="0 0 128 128"><title>langvik_web_ikonit_vektori</title><path d="M63.23,50.61c-5.28,0-9,4.28-9,9.56V92.66c0,5.27,3.73,9.55,9,9.55s9-4.28,9-9.55V60.17C72.25,54.89,68.52,50.61,63.23,50.61Z"/><path d="M63.28,25.76a9.88,9.88,0,1,0,9.86,9.87A9.88,9.88,0,0,0,63.28,25.76Z"/><path d="M63.28,6.42a59.07,59.07,0,1,0,59.07,59.07A59.14,59.14,0,0,0,63.28,6.42Zm0,105.27a46.19,46.19,0,1,1,46.18-46.21A46.24,46.24,0,0,1,63.28,111.69Z"/></svg>