<svg id="Layer_1" data-name="Layer 1" xmlns="http://www.w3.org/2000/svg" viewBox="0 0 128 128"><title>langvik_web_ikonit_vektori</title><path d="M63.43,35.63A13.26,13.26,0,1,0,50.17,22.37,13.28,13.28,0,0,0,63.43,35.63Z"/><path d="M66.22,39.92a1.57,1.57,0,0,0-1.16-.48H61.81a1.57,1.57,0,0,0-1.16.48,1.51,1.51,0,0,0-.2,1.78l1.74,2.62-.81,6.87L63,55.45a.49.49,0,0,0,.92,0l1.6-4.26-.81-6.87,1.74-2.62A1.51,1.51,0,0,0,66.22,39.92Z"/><path d="M43,70.55H83.85a1.89,1.89,0,0,0,1.89-1.89v-17a11.58,11.58,0,0,0-8-11L74,39.55a1.34,1.34,0,0,0-1.65.82l-8.93,24.5L54.5,40.37a1.34,1.34,0,0,0-1.26-.88,1.33,1.33,0,0,0-.39.06l-3.7,1.13a11.6,11.6,0,0,0-8,11v17A1.89,1.89,0,0,0,43,70.55Z"/><path d="M21,42.41A13.26,13.26,0,1,0,7.72,29.15,13.28,13.28,0,0,0,21,42.41Z"/><path d="M43.55,78.86H33V58A12,12,0,1,0,9,58V86.34A11.53,11.53,0,0,0,20.5,97.87H34.2v18.88A3.26,3.26,0,0,0,37.46,120H50.12a3.26,3.26,0,0,0,3.26-3.26V88.69A9.82,9.82,0,0,0,43.55,78.86Z"/><path d="M105.89,42.41A13.26,13.26,0,1,0,92.62,29.15,13.28,13.28,0,0,0,105.89,42.41Z"/><path d="M105.89,46a12,12,0,0,0-12,12V78.86H83.31a9.82,9.82,0,0,0-9.82,9.82v28.07A3.26,3.26,0,0,0,76.75,120H89.4a3.26,3.26,0,0,0,3.26-3.26V97.87h13.7A11.53,11.53,0,0,0,117.9,86.34V58A12,12,0,0,0,105.89,46Z"/></svg>