<svg id="Layer_1" data-name="Layer 1" xmlns="http://www.w3.org/2000/svg" viewBox="0 0 128 128"><title>langvik_web_ikonit_vektori</title><path d="M118.6,101.87C110.42,95,86.37,74.84,75.34,65c6-5.48,14.34-13.63,22.47-21.55,9.31-9.07,18.1-17.65,22.09-21a9,9,0,0,0-1.46-14.78,8.86,8.86,0,0,0-9.1.22C100.26,13.5,64,39.56,64,45.18A21.78,21.78,0,0,1,63.34,51c-2.71-4.65-4.27-8.92-4.27-10.75,0-3.5-11.9-14.92-35.37-33.94a2.78,2.78,0,0,0-3.5.38,2.46,2.46,0,0,0,0,3.48l23.38,23.4a2.47,2.47,0,0,1,0,3.48,2.52,2.52,0,0,1-3.48,0L16.72,13.67a2.46,2.46,0,0,0-3.48,0l-.42.42a2.46,2.46,0,0,0,0,3.48L36.2,41a2.47,2.47,0,0,1,0,3.48,2.52,2.52,0,0,1-3.48,0L9.34,21.06a2.74,2.74,0,0,0-3.69.21,2.46,2.46,0,0,0-.17,3.29C24.48,48,35.88,60,39.39,60c2.09,0,7.34,2,12.74,5.51C41.22,75.17,19,93.86,9.4,101.87A12.53,12.53,0,1,0,27,119.52c8.23-9.84,27.46-32.78,37-43.41,9.8,11,30.09,35.21,37,43.42a12.53,12.53,0,1,0,17.64-17.66Z"/></svg>