<svg id="Layer_1" data-name="Layer 1" xmlns="http://www.w3.org/2000/svg" viewBox="0 0 128 128"><title>langvik_web_ikonit_vektori</title><path d="M70.05,13c-5.73,0-11.2.19-16.27.54a25.53,25.53,0,0,0-19.4-9,25.11,25.11,0,0,0-8.9,1.62A25.44,25.44,0,0,0,10.58,38.81a3.91,3.91,0,0,0,5,2.29L34.53,34c11.91,12.33,29.33,30.3,29.33,30.3a5.52,5.52,0,0,0,.8.7v44c-15.15.55-26.74,3.36-26.74,6.73,0,3.77,14.39,6.83,32.16,6.83s32.15-3.06,32.15-6.83c0-3.41-11.82-6.24-27.3-6.74V65a3.68,3.68,0,0,0,.71-.64S116.24,23,116.45,22.69h0a1.86,1.86,0,0,0,.34-1C116.81,16.91,95.88,13,70.05,13ZM16.91,32.32a17.56,17.56,0,0,1,.57-7.37l8.3,4Zm6.43-10.26-3.67-1.79a17.52,17.52,0,0,1,5.24-5.17l1.53,3.48L29.2,24.9Zm12.89-6.33-2.43,6.8-2.48-5.68L29.63,13a17.43,17.43,0,0,1,4.76-.66,16.72,16.72,0,0,1,3,.26Zm2.47,8.43,1-2.7,2.39-6.69.22-.56c.26.13.54.28.8.43a17.94,17.94,0,0,1,5.7,5.16l.34.47Zm31.19,4.56c-7,0-13.52-.32-18.91-.86L55.89,26a3.88,3.88,0,0,0,2.27-5c-.25-.68-.54-1.34-.84-2,3.89-.24,8.12-.37,12.57-.37,18.66,0,33.79,2.24,33.79,5S88.54,28.72,69.89,28.72Z"/></svg>