<svg id="Layer_1" data-name="Layer 1" xmlns="http://www.w3.org/2000/svg" viewBox="0 0 128 128"><title>langvik_web_ikonit_vektori</title><path d="M72.51,40a3,3,0,1,0,.89,2.14A3,3,0,0,0,72.51,40Z"/><path d="M85.83,33.2a3,3,0,1,0,.88,2.14A3.06,3.06,0,0,0,85.83,33.2Z"/><path d="M85.83,46.73a3,3,0,1,0,.88,2.14A3,3,0,0,0,85.83,46.73Z"/><path d="M83.68,59.36a3,3,0,1,0,2.14.89A3,3,0,0,0,83.68,59.36Z"/><path d="M68.23,53.49a3,3,0,1,0,2.14-.89A3,3,0,0,0,68.23,53.49Z"/><path d="M63.7,29.09H90.34a4,4,0,1,0,0-8.07h-9.2V18a2.35,2.35,0,0,1,2.42-2.19h20.31a2.46,2.46,0,0,1,2.42,2.42V61.78h8.07V18.19A10.5,10.5,0,0,0,103.87,7.7H83.56A10.39,10.39,0,0,0,73.07,18V21H63.7a4,4,0,0,0,0,8.07Z"/><path d="M124.75,97.91V71.67a4,4,0,0,0-4-4H7.5a4,4,0,0,0-4,4V97.91a17.74,17.74,0,0,0,7.3,14.34l-3.19,3.19a4,4,0,1,0,5.71,5.71l5.63-5.63a17.66,17.66,0,0,0,2.31.16H107a17.71,17.71,0,0,0,2.31-.16l5.63,5.63a4,4,0,0,0,5.71-5.71l-3.19-3.19A17.75,17.75,0,0,0,124.75,97.91Z"/></svg>